<?xml version="1.0" encoding="UTF-8"?>
<svg xmlns="http://www.w3.org/2000/svg" xmlns:xlink="http://www.w3.org/1999/xlink" width="48px" height="48px" viewBox="0 0 48 48" version="1.1">
<g id="surface1">
<path style=" stroke:none;fill-rule:nonzero;fill:rgb(0%,0%,0%);fill-opacity:1;" d="M 37.097656 25.5 C 37.167969 32.765625 43.472656 35.183594 43.542969 35.214844 C 43.488281 35.382812 42.535156 38.65625 40.21875 42.039062 C 38.21875 44.964844 36.144531 47.878906 32.871094 47.9375 C 29.65625 47.996094 28.625 46.03125 24.949219 46.03125 C 21.277344 46.03125 20.128906 47.878906 17.085938 47.996094 C 13.929688 48.117188 11.523438 44.835938 9.507812 41.921875 C 5.386719 35.960938 2.234375 25.082031 6.464844 17.738281 C 8.566406 14.089844 12.320312 11.78125 16.398438 11.722656 C 19.496094 11.664062 22.421875 13.808594 24.320312 13.808594 C 26.214844 13.808594 29.769531 11.226562 33.507812 11.605469 C 35.074219 11.671875 39.464844 12.238281 42.285156 16.367188 C 42.058594 16.507812 37.046875 19.429688 37.097656 25.5 M 31.058594 7.664062 C 32.734375 5.636719 33.863281 2.808594 33.554688 0 C 31.140625 0.0976562 28.21875 1.609375 26.484375 3.636719 C 24.933594 5.433594 23.570312 8.308594 23.9375 11.0625 C 26.632812 11.269531 29.382812 9.695312 31.058594 7.664062 "/>
</g>
</svg>
