<?xml version="1.0" encoding="UTF-8"?>
<svg xmlns="http://www.w3.org/2000/svg" xmlns:xlink="http://www.w3.org/1999/xlink" width="48px" height="48px" viewBox="0 0 48 48" version="1.1">
<g id="surface1">
<path style=" stroke:none;fill-rule:nonzero;fill:rgb(46.27451%,66.274512%,91.764706%);fill-opacity:1;" d="M 47.238281 8.679688 C 46.171875 9.152344 45.0625 9.527344 43.925781 9.796875 C 45.179688 8.609375 46.121094 7.121094 46.652344 5.460938 C 46.800781 4.984375 46.289062 4.574219 45.859375 4.828125 C 44.277344 5.765625 42.578125 6.46875 40.800781 6.917969 C 40.695312 6.945312 40.589844 6.957031 40.484375 6.957031 C 40.160156 6.957031 39.84375 6.839844 39.597656 6.621094 C 37.707031 4.953125 35.273438 4.035156 32.75 4.035156 C 31.65625 4.035156 30.554688 4.207031 29.472656 4.542969 C 26.117188 5.582031 23.527344 8.351562 22.714844 11.765625 C 22.410156 13.046875 22.328125 14.328125 22.46875 15.578125 C 22.484375 15.71875 22.417969 15.820312 22.375 15.867188 C 22.304688 15.949219 22.199219 15.996094 22.089844 15.996094 C 22.078125 15.996094 22.066406 15.996094 22.054688 15.996094 C 14.710938 15.3125 8.085938 11.773438 3.402344 6.03125 C 3.164062 5.738281 2.707031 5.773438 2.515625 6.101562 C 1.601562 7.671875 1.117188 9.472656 1.117188 11.300781 C 1.117188 14.109375 2.242188 16.75 4.199219 18.679688 C 3.378906 18.484375 2.582031 18.175781 1.839844 17.765625 C 1.484375 17.566406 1.042969 17.820312 1.035156 18.230469 C 0.984375 22.398438 3.425781 26.109375 7.082031 27.777344 C 7.007812 27.78125 6.933594 27.78125 6.859375 27.78125 C 6.28125 27.78125 5.695312 27.722656 5.117188 27.613281 C 4.714844 27.535156 4.375 27.917969 4.5 28.308594 C 5.6875 32.015625 8.875 34.746094 12.691406 35.363281 C 9.523438 37.492188 5.835938 38.613281 1.996094 38.613281 L 0.800781 38.613281 C 0.429688 38.613281 0.117188 38.851562 0.0234375 39.210938 C -0.0664062 39.5625 0.101562 39.933594 0.417969 40.117188 C 4.742188 42.632812 9.679688 43.964844 14.691406 43.964844 C 19.078125 43.964844 23.179688 43.09375 26.886719 41.375 C 30.285156 39.800781 33.285156 37.550781 35.808594 34.6875 C 38.160156 32.023438 40 28.941406 41.273438 25.539062 C 42.488281 22.292969 43.132812 18.828125 43.132812 15.519531 L 43.132812 15.363281 C 43.132812 14.832031 43.371094 14.332031 43.792969 13.992188 C 45.382812 12.703125 46.765625 11.183594 47.90625 9.476562 C 48.207031 9.027344 47.730469 8.460938 47.238281 8.679688 Z M 47.238281 8.679688 "/>
</g>
</svg>
